<?xml version="1.0" encoding="UTF-8" standalone="no"?>
<!DOCTYPE svg PUBLIC "-//W3C//DTD SVG 1.1//EN"
 "http://www.w3.org/Graphics/SVG/1.1/DTD/svg11.dtd">
<!-- Generated by graphviz version 12.2.1 (0)
 -->
<!-- Title: G Pages: 1 -->
<svg width="679pt" height="77pt"
 viewBox="0.00 0.00 678.65 77.25" xmlns="http://www.w3.org/2000/svg" xmlns:xlink="http://www.w3.org/1999/xlink">
<g id="graph0" class="graph" transform="scale(1 1) rotate(0) translate(4 73.25)">
<title>G</title>
<polygon fill="#4a4a4a" stroke="none" points="-4,4 -4,-73.25 674.65,-73.25 674.65,4 -4,4"/>
<!-- n_0 -->
<g id="node1" class="node">
<title>n_0</title>
<ellipse fill="white" stroke="white" cx="91.8" cy="-28.5" rx="1.8" ry="1.8"/>
<text text-anchor="middle" x="74.85" y="-13.4" font-family="Times,serif" font-size="14.00" fill="white">[0, 1]</text>
</g>
<!-- e_0 -->
<g id="node6" class="node">
<title>e_0</title>
<path fill="none" stroke="white" d="M141.6,-6.5C141.6,-6.5 206.85,-6.5 206.85,-6.5 212.85,-6.5 218.85,-12.5 218.85,-18.5 218.85,-18.5 218.85,-30.5 218.85,-30.5 218.85,-36.5 212.85,-42.5 206.85,-42.5 206.85,-42.5 141.6,-42.5 141.6,-42.5 135.6,-42.5 129.6,-36.5 129.6,-30.5 129.6,-30.5 129.6,-18.5 129.6,-18.5 129.6,-12.5 135.6,-6.5 141.6,-6.5"/>
<text text-anchor="middle" x="139.85" y="-20.2" font-family="Times,serif" font-size="14.00" fill="white"> </text>
<polyline fill="none" stroke="white" points="150.1,-7.25 150.1,-42.5"/>
<text text-anchor="middle" x="174.22" y="-20.2" font-family="Times,serif" font-size="14.00" fill="white">Cast</text>
<polyline fill="none" stroke="white" points="198.35,-7.25 198.35,-42.5"/>
<text text-anchor="middle" x="208.6" y="-20.2" font-family="Times,serif" font-size="14.00" fill="white"> </text>
</g>
<!-- n_0&#45;&gt;e_0 -->
<g id="edge4" class="edge">
<title>n_0&#45;&gt;e_0:s_0</title>
<path fill="none" stroke="white" d="M93.94,-28.31C98.45,-27.55 115.48,-24.88 129.6,-24.88"/>
</g>
<!-- n_1 -->
<g id="node2" class="node">
<title>n_1</title>
<ellipse fill="white" stroke="white" cx="256.65" cy="-22.5" rx="1.8" ry="1.8"/>
<text text-anchor="middle" x="249.6" y="-7.4" font-family="Times,serif" font-size="14.00" fill="white">ℤ</text>
</g>
<!-- e_1 -->
<g id="node7" class="node">
<title>e_1</title>
<path fill="none" stroke="white" d="M306.45,-0.5C306.45,-0.5 368.7,-0.5 368.7,-0.5 374.7,-0.5 380.7,-6.5 380.7,-12.5 380.7,-12.5 380.7,-24.5 380.7,-24.5 380.7,-30.5 374.7,-36.5 368.7,-36.5 368.7,-36.5 306.45,-36.5 306.45,-36.5 300.45,-36.5 294.45,-30.5 294.45,-24.5 294.45,-24.5 294.45,-12.5 294.45,-12.5 294.45,-6.5 300.45,-0.5 306.45,-0.5"/>
<text text-anchor="middle" x="304.7" y="-14.2" font-family="Times,serif" font-size="14.00" fill="white"> </text>
<polyline fill="none" stroke="white" points="314.95,-1.25 314.95,-36.5"/>
<text text-anchor="middle" x="337.57" y="-14.2" font-family="Times,serif" font-size="14.00" fill="white">Neg</text>
<polyline fill="none" stroke="white" points="360.2,-1.25 360.2,-36.5"/>
<text text-anchor="middle" x="370.45" y="-14.2" font-family="Times,serif" font-size="14.00" fill="white"> </text>
</g>
<!-- n_1&#45;&gt;e_1 -->
<g id="edge6" class="edge">
<title>n_1&#45;&gt;e_1:s_0</title>
<path fill="none" stroke="white" d="M258.79,-22.31C263.3,-21.55 280.33,-18.88 294.45,-18.88"/>
</g>
<!-- n_2 -->
<g id="node3" class="node">
<title>n_2</title>
<ellipse fill="white" stroke="white" cx="418.5" cy="-27.5" rx="1.8" ry="1.8"/>
<text text-anchor="middle" x="411.45" y="-12.4" font-family="Times,serif" font-size="14.00" fill="white">ℤ</text>
</g>
<!-- e_2 -->
<g id="node8" class="node">
<title>e_2</title>
<path fill="none" stroke="white" d="M468.3,-17.25C468.3,-17.25 529.05,-17.25 529.05,-17.25 535.05,-17.25 541.05,-23.25 541.05,-29.25 541.05,-29.25 541.05,-55.75 541.05,-55.75 541.05,-61.75 535.05,-67.75 529.05,-67.75 529.05,-67.75 468.3,-67.75 468.3,-67.75 462.3,-67.75 456.3,-61.75 456.3,-55.75 456.3,-55.75 456.3,-29.25 456.3,-29.25 456.3,-23.25 462.3,-17.25 468.3,-17.25"/>
<text text-anchor="middle" x="466.55" y="-50.45" font-family="Times,serif" font-size="14.00" fill="white"> </text>
<polyline fill="none" stroke="white" points="456.3,-42.5 476.8,-42.5"/>
<text text-anchor="middle" x="466.55" y="-25.2" font-family="Times,serif" font-size="14.00" fill="white"> </text>
<polyline fill="none" stroke="white" points="476.8,-17.25 476.8,-67.75"/>
<text text-anchor="middle" x="498.67" y="-37.83" font-family="Times,serif" font-size="14.00" fill="white">Add</text>
<polyline fill="none" stroke="white" points="520.55,-17.25 520.55,-67.75"/>
<text text-anchor="middle" x="530.8" y="-37.95" font-family="Times,serif" font-size="14.00" fill="white"> </text>
</g>
<!-- n_2&#45;&gt;e_2 -->
<g id="edge9" class="edge">
<title>n_2&#45;&gt;e_2:s_1</title>
<path fill="none" stroke="white" d="M420.64,-27.63C425.16,-28.12 442.22,-29.88 456.3,-29.88"/>
</g>
<!-- n_3 -->
<g id="node4" class="node">
<title>n_3</title>
<ellipse fill="white" stroke="white" cx="174.22" cy="-64.5" rx="1.8" ry="1.8"/>
<text text-anchor="middle" x="167.17" y="-49.4" font-family="Times,serif" font-size="14.00" fill="white">ℤ</text>
</g>
<!-- n_3&#45;&gt;e_2 -->
<g id="edge8" class="edge">
<title>n_3&#45;&gt;e_2:s_0</title>
<path fill="none" stroke="white" d="M176.23,-64.44C189.79,-63.64 337.17,-55.13 456.3,-55.12"/>
</g>
<!-- n_4 -->
<g id="node5" class="node">
<title>n_4</title>
<ellipse fill="white" stroke="white" cx="578.85" cy="-42.5" rx="1.8" ry="1.8"/>
<text text-anchor="middle" x="571.8" y="-27.4" font-family="Times,serif" font-size="14.00" fill="white">ℤ</text>
</g>
<!-- targets -->
<g id="node10" class="node">
<title>targets</title>
</g>
<!-- n_4&#45;&gt;targets -->
<g id="edge3" class="edge">
<title>n_4&#45;&gt;targets:p_0</title>
<path fill="none" stroke="white" stroke-dasharray="5,2" d="M580.99,-42.52C585.52,-42.6 602.59,-42.88 616.65,-42.88"/>
</g>
<!-- e_0&#45;&gt;n_1 -->
<g id="edge5" class="edge">
<title>e_0:t_0&#45;&gt;n_1</title>
<path fill="none" stroke="white" d="M218.85,-24.88C232.93,-24.88 249.99,-23.12 254.51,-22.63"/>
</g>
<!-- e_1&#45;&gt;n_2 -->
<g id="edge7" class="edge">
<title>e_1:t_0&#45;&gt;n_2</title>
<path fill="none" stroke="white" d="M380.7,-18.88C395.14,-18.88 411.94,-25.24 416.38,-27.04"/>
</g>
<!-- e_2&#45;&gt;n_4 -->
<g id="edge10" class="edge">
<title>e_2:t_0&#45;&gt;n_4</title>
<path fill="none" stroke="white" d="M541.05,-42.62C555.11,-42.62 572.18,-42.53 576.71,-42.51"/>
</g>
<!-- sources -->
<g id="node9" class="node">
<title>sources</title>
</g>
<!-- sources&#45;&gt;n_0 -->
<g id="edge2" class="edge">
<title>sources:p_1&#45;&gt;n_0</title>
<path fill="none" stroke="white" stroke-dasharray="5,2" d="M54,-30.88C68.08,-30.88 85.14,-29.12 89.66,-28.63"/>
</g>
<!-- sources&#45;&gt;n_3 -->
<g id="edge1" class="edge">
<title>sources:p_0&#45;&gt;n_3</title>
<path fill="none" stroke="white" stroke-dasharray="5,2" d="M54,-56.12C102.97,-56.12 162.98,-63.24 172.05,-64.35"/>
</g>
</g>
</svg>
